<svg xmlns="http://www.w3.org/2000/svg" width="40.143" height="53.183" viewBox="0 0 40.143 53.183"><g transform="translate(0)"><g transform="translate(0)"><path d="M175.828,162.062a3.763,3.763,0,0,0-1.293-.7,7.634,7.634,0,0,0-1.67-.162h-2.479a1.427,1.427,0,0,0-.916.269,1.324,1.324,0,0,0-.269.916v6.951a1.6,1.6,0,0,0,.108.754.669.669,0,0,0,.323.431,1.514,1.514,0,0,0,.808.162h2.479a8.07,8.07,0,0,0,1.185-.108,6.51,6.51,0,0,0,.97-.269,3.019,3.019,0,0,0,.808-.539,4.829,4.829,0,0,0,.808-1.024,4.6,4.6,0,0,0,.485-1.293,6.962,6.962,0,0,0,.162-1.563A4.729,4.729,0,0,0,175.828,162.062Zm-1.4,6.682a2.183,2.183,0,0,1-.485.269,2.371,2.371,0,0,1-.539.108h-2.209v-6.466h1.293a4.249,4.249,0,0,1,1.509.216,1.683,1.683,0,0,1,1.024.916,4.372,4.372,0,0,1,.431,2.1A3.7,3.7,0,0,1,174.427,168.744Z" transform="translate(-152.927 -139.485)"/><path d="M88.435,10.615l-.054-.054v-.054L78.144.269,78.09.216a.053.053,0,0,1-.054-.054.053.053,0,0,1-.054-.054A.886.886,0,0,0,77.443,0H52.064a3.586,3.586,0,0,0-2.533,1.024l-.054.054A3.763,3.763,0,0,0,48.4,3.664V49.519a3.664,3.664,0,0,0,1.078,2.586,3.763,3.763,0,0,0,2.586,1.078H84.879a3.664,3.664,0,0,0,2.586-1.078,3.763,3.763,0,0,0,1.078-2.586V11.154A1.594,1.594,0,0,0,88.435,10.615ZM78.467,3.88l6.089,6.089H80.083a1.467,1.467,0,0,1-1.132-.485,1.68,1.68,0,0,1-.485-1.132Zm7.759,45.639a1.478,1.478,0,0,1-1.4,1.4H52.064a1.549,1.549,0,0,1-.97-.377,1.3,1.3,0,0,1-.377-.97V3.61a1.349,1.349,0,0,1,.431-.97l.054-.054a1.529,1.529,0,0,1,.916-.377h24.14V8.3a3.913,3.913,0,0,0,1.185,2.8,4,4,0,0,0,2.8,1.132h5.981Z" transform="translate(-48.4)"/><path d="M109.958,162.3a2.081,2.081,0,0,0-1.024-.539,6.677,6.677,0,0,0-1.67-.162h-2.479a1.324,1.324,0,0,0-.916.269c-.216.162-.269.485-.269.916v7.328a1.371,1.371,0,0,0,.269.862.827.827,0,0,0,.7.269.949.949,0,0,0,.7-.323,1.371,1.371,0,0,0,.269-.862v-2.694h1.778a4.059,4.059,0,0,0,2.64-.754,2.726,2.726,0,0,0,.916-2.209,3.161,3.161,0,0,0-.216-1.239A3.762,3.762,0,0,0,109.958,162.3Zm-1.293,3.017a1.368,1.368,0,0,1-.7.485,3.583,3.583,0,0,1-1.132.162H105.54v-2.91h1.293a2.665,2.665,0,0,1,1.724.431,1.341,1.341,0,0,1,.377,1.024A1.794,1.794,0,0,1,108.665,165.318Z" transform="translate(-96.164 -139.831)"/><path d="M243.185,160.8a1.791,1.791,0,0,0-.7.216.651.651,0,0,0-.377.377,1.273,1.273,0,0,0-.108.7v7.274a1.265,1.265,0,0,0,.269.862.827.827,0,0,0,.7.269,1.135,1.135,0,0,0,.7-.269,1.371,1.371,0,0,0,.269-.862v-3.125h3.179a.859.859,0,0,0,.647-.216.625.625,0,0,0,.216-.539.692.692,0,0,0-.216-.539,1.155,1.155,0,0,0-.647-.216H243.94v-2.425h3.772a.914.914,0,0,0,.7-.216.781.781,0,0,0,0-1.078.914.914,0,0,0-.7-.216Z" transform="translate(-215.92 -139.139)"/></g></g></svg>