<svg xmlns="http://www.w3.org/2000/svg" width="51.137" height="53.183" viewBox="0 0 51.137 53.183"><path d="M14.127,24.391a5.7,5.7,0,1,0-5.7-5.7A5.7,5.7,0,0,0,14.127,24.391Zm0-9.346a3.65,3.65,0,1,1-3.65,3.651A3.655,3.655,0,0,1,14.127,15.045Z" transform="translate(-0.831 0.296)"/><path d="M1,0V53.183H52.137V0ZM3.045,2.045H50.092V29.38L39.533,19.7a1.05,1.05,0,0,0-.736-.268,1.025,1.025,0,0,0-.71.332L28.07,30.737l-4.851-4.851a1.024,1.024,0,0,0-1.4-.045L4.7,40.91H3.045ZM50.092,51.137H3.045V42.955H50.092ZM7.8,40.91l14.65-12.9L32.986,38.547A1.023,1.023,0,0,0,34.433,37.1l-4.916-4.916L38.906,21.9,50.092,32.155V40.91Z" transform="translate(-1)"/></svg>