<svg xmlns="http://www.w3.org/2000/svg" xmlns:xlink="http://www.w3.org/1999/xlink" width="549" height="343" viewBox="0 0 549 343"><defs><filter id="a" x="176" y="183" width="106" height="106" filterUnits="userSpaceOnUse"><feOffset dy="3" input="SourceAlpha"/><feGaussianBlur stdDeviation="3" result="b"/><feFlood flood-color="#2680eb" flood-opacity="0.251"/><feComposite operator="in" in2="b"/><feComposite in="SourceGraphic"/></filter><filter id="c" x="289" y="183" width="107" height="106" filterUnits="userSpaceOnUse"><feOffset dy="3" input="SourceAlpha"/><feGaussianBlur stdDeviation="3" result="d"/><feFlood flood-color="#2680eb" flood-opacity="0.251"/><feComposite operator="in" in2="d"/><feComposite in="SourceGraphic"/></filter><filter id="e" x="402" y="183" width="108" height="106" filterUnits="userSpaceOnUse"><feOffset dy="3" input="SourceAlpha"/><feGaussianBlur stdDeviation="3" result="f"/><feFlood flood-color="#2680eb" flood-opacity="0.251"/><feComposite operator="in" in2="f"/><feComposite in="SourceGraphic"/></filter><filter id="g" x="215.648" y="132.929" width="30.177" height="33.503" filterUnits="userSpaceOnUse"><feOffset dy="3" input="SourceAlpha"/><feGaussianBlur stdDeviation="1.5" result="h"/><feFlood flood-opacity="0.251"/><feComposite operator="in" in2="h"/><feComposite in="SourceGraphic"/></filter><filter id="i" x="216" y="137" width="31" height="31" filterUnits="userSpaceOnUse"><feOffset dy="-3" input="SourceAlpha"/><feGaussianBlur stdDeviation="3" result="j"/><feFlood flood-opacity="0.161"/><feComposite operator="in" in2="j"/><feComposite in="SourceGraphic"/></filter><filter id="k" x="73.681" y="156.729" width="30.177" height="33.503" filterUnits="userSpaceOnUse"><feOffset dy="3" input="SourceAlpha"/><feGaussianBlur stdDeviation="1.5" result="l"/><feFlood flood-opacity="0.251"/><feComposite operator="in" in2="l"/><feComposite in="SourceGraphic"/></filter><filter id="m" x="73" y="161" width="32" height="31" filterUnits="userSpaceOnUse"><feOffset dy="-3" input="SourceAlpha"/><feGaussianBlur stdDeviation="3" result="n"/><feFlood flood-opacity="0.161"/><feComposite operator="in" in2="n"/><feComposite in="SourceGraphic"/></filter><filter id="o" x="326.641" y="132.929" width="30.177" height="33.503" filterUnits="userSpaceOnUse"><feOffset dy="3" input="SourceAlpha"/><feGaussianBlur stdDeviation="1.5" result="p"/><feFlood flood-opacity="0.251"/><feComposite operator="in" in2="p"/><feComposite in="SourceGraphic"/></filter><filter id="q" x="326" y="137" width="32" height="31" filterUnits="userSpaceOnUse"><feOffset dy="-3" input="SourceAlpha"/><feGaussianBlur stdDeviation="3" result="r"/><feFlood flood-opacity="0.161"/><feComposite operator="in" in2="r"/><feComposite in="SourceGraphic"/></filter><filter id="s" x="441.79" y="132.929" width="30.177" height="33.503" filterUnits="userSpaceOnUse"><feOffset dy="3" input="SourceAlpha"/><feGaussianBlur stdDeviation="1.5" result="t"/><feFlood flood-opacity="0.251"/><feComposite operator="in" in2="t"/><feComposite in="SourceGraphic"/></filter><filter id="u" x="441" y="137" width="31" height="31" filterUnits="userSpaceOnUse"><feOffset dy="-3" input="SourceAlpha"/><feGaussianBlur stdDeviation="3" result="v"/><feFlood flood-opacity="0.161"/><feComposite operator="in" in2="v"/><feComposite in="SourceGraphic"/></filter><filter id="w" x="158" y="93" width="56" height="56" filterUnits="userSpaceOnUse"><feOffset dy="3" input="SourceAlpha"/><feGaussianBlur stdDeviation="3" result="x"/><feFlood flood-opacity="0.161"/><feComposite operator="in" in2="x"/><feComposite in="SourceGraphic"/></filter><filter id="y" x="266" y="93" width="54" height="56" filterUnits="userSpaceOnUse"><feOffset dy="3" input="SourceAlpha"/><feGaussianBlur stdDeviation="3" result="z"/><feFlood flood-opacity="0.161"/><feComposite operator="in" in2="z"/><feComposite in="SourceGraphic"/></filter><filter id="aa" x="375" y="93" width="55" height="56" filterUnits="userSpaceOnUse"><feOffset dy="3" input="SourceAlpha"/><feGaussianBlur stdDeviation="3" result="ab"/><feFlood flood-opacity="0.161"/><feComposite operator="in" in2="ab"/><feComposite in="SourceGraphic"/></filter></defs><g transform="translate(-182 -1887)"><g transform="translate(182 1887)" fill="#fff"><path d="M 534 342 L 15 342 C 11.2604284286499 342 7.744714260101318 340.543701171875 5.100500106811523 337.8995056152344 C 2.456285715103149 335.2552795410156 1 331.7395629882813 1 328 L 1 15 C 1 11.2604284286499 2.456285715103149 7.744714260101318 5.100500106811523 5.100500106811523 C 7.744714260101318 2.456285715103149 11.2604284286499 1 15 1 L 534 1 C 537.7395629882813 1 541.2553100585938 2.456285715103149 543.8994750976563 5.100500106811523 C 546.543701171875 7.744714260101318 548 11.2604284286499 548 15 L 548 328 C 548 331.7395629882813 546.543701171875 335.2552795410156 543.8994750976563 337.8995056152344 C 541.2553100585938 340.543701171875 537.7395629882813 342 534 342 Z" stroke="none"/><path d="M 15 2 C 11.527587890625 2 8.26300048828125 3.352203369140625 5.80755615234375 5.807586669921875 C 3.35223388671875 8.26300048828125 2 11.52755737304688 2 15 L 2 328 C 2 331.4724426269531 3.35223388671875 334.7369995117188 5.80755615234375 337.1924438476563 C 8.26300048828125 339.6477966308594 11.527587890625 341 15 341 L 534 341 C 537.472412109375 341 540.7369995117188 339.6477966308594 543.1924438476563 337.1924438476563 C 545.6477661132813 334.7369995117188 547 331.4724426269531 547 328 L 547 15 C 547 11.52755737304688 545.6477661132813 8.26300048828125 543.1924438476563 5.807586669921875 C 540.7369995117188 3.352203369140625 537.472412109375 2 534 2 L 15 2 M 15 0 L 534 0 C 542.2843017578125 0 549 6.715728759765625 549 15 L 549 328 C 549 336.2842712402344 542.2843017578125 343 534 343 L 15 343 C 6.7156982421875 343 0 336.2842712402344 0 328 L 0 15 C 0 6.715728759765625 6.7156982421875 0 15 0 Z" stroke="none" fill="#2680eb"/></g><g transform="translate(914.715 1885)"><g transform="translate(-756 2)"><g transform="translate(75.301 72.049)"><g transform="matrix(1, 0, 0, 1, -52.02, -72.05)" filter="url(#a)"><circle cx="44" cy="44" r="44" transform="translate(185 189)" fill="#fff"/></g><g transform="matrix(1, 0, 0, 1, -52.02, -72.05)" filter="url(#c)"><ellipse cx="44.5" cy="44" rx="44.5" ry="44" transform="translate(298 189)" fill="#fff"/></g><g transform="matrix(1, 0, 0, 1, -52.02, -72.05)" filter="url(#e)"><ellipse cx="45" cy="44" rx="45" ry="44" transform="translate(411 189)" fill="#fff"/></g><ellipse cx="38" cy="38.5" rx="38" ry="38.5" transform="translate(139.985 121.951)" fill="#666"/><ellipse cx="38" cy="38.5" rx="38" ry="38.5" transform="translate(251.985 121.951)" fill="#666"/><ellipse cx="38" cy="38.5" rx="38" ry="38.5" transform="translate(365.985 121.951)" fill="#666"/><text transform="translate(130.054 10)" fill="#666" font-size="10" font-family="Roboto-Bold, Roboto" font-weight="700" letter-spacing="0.032em"><tspan x="-15.376" y="0">VALVE</tspan></text><text transform="translate(175.613 222.78)" fill="#666" font-size="10" font-family="Roboto-Bold, Roboto" font-weight="700" letter-spacing="0.032em"><tspan x="-17.782" y="0">TANK 2</tspan></text><text transform="translate(284.872 222.78)" fill="#666" font-size="10" font-family="Roboto-Bold, Roboto" font-weight="700" letter-spacing="0.032em"><tspan x="-34.207" y="0">CENTER TANK</tspan></text><text transform="translate(402.293 222.78)" fill="#666" font-size="10" font-family="Roboto-Bold, Roboto" font-weight="700" letter-spacing="0.032em"><tspan x="-17.782" y="0">TANK 1</tspan></text><text transform="translate(174.216 57.314)" fill="#666" font-size="4" font-family="Roboto-Bold, Roboto" font-weight="700" letter-spacing="0.032em"><tspan x="-5.4" y="0">OPEN</tspan></text><text transform="translate(175.413 98.775)" fill="#666" font-size="5" font-family="Roboto-Bold, Roboto" font-weight="700" letter-spacing="0.032em"><tspan x="-9.605" y="0">CLOSED</tspan></text><text transform="translate(6.904 100.679)" fill="#666" font-size="5" font-family="Roboto-Bold, Roboto" font-weight="700" letter-spacing="0.032em"><tspan x="-4.625" y="0">OFF</tspan></text><text transform="translate(284.898 57.314)" fill="#666" font-size="4" font-family="Roboto-Bold, Roboto" font-weight="700" letter-spacing="0.032em"><tspan x="-5.4" y="0">OPEN</tspan></text><text transform="translate(286.4 98.775)" fill="#666" font-size="5" font-family="Roboto-Bold, Roboto" font-weight="700" letter-spacing="0.032em"><tspan x="-9.605" y="0">CLOSED</tspan></text><text transform="translate(400.718 57.314)" fill="#666" font-size="4" font-family="Roboto-Bold, Roboto" font-weight="700" letter-spacing="0.032em"><tspan x="-5.4" y="0">OPEN</tspan></text><text transform="translate(401.909 98.775)" fill="#666" font-size="5" font-family="Roboto-Bold, Roboto" font-weight="700" letter-spacing="0.032em"><tspan x="-9.605" y="0">CLOSED</tspan></text><text transform="translate(0 35.229)" fill="#666" font-size="10" font-family="Roboto-Bold, Roboto" font-weight="700" letter-spacing="0.032em"><tspan x="0" y="0">TEST</tspan><tspan x="0" y="13">GAUGES &amp;</tspan><tspan x="0" y="26">FUELING</tspan></text><text transform="translate(0 147.093)" fill="#666" font-size="10" font-family="Roboto-Bold, Roboto" font-weight="700" letter-spacing="0.032em"><tspan x="0" y="0">AUX FUELING</tspan><tspan x="0" y="13">POWER CONTROL</tspan></text><text transform="translate(240.867 10)" fill="#666" font-size="10" font-family="Roboto-Bold, Roboto" font-weight="700" letter-spacing="0.032em"><tspan x="-23.791" y="0">POSITION</tspan></text><text transform="translate(353.063 10)" fill="#666" font-size="10" font-family="Roboto-Bold, Roboto" font-weight="700" letter-spacing="0.032em"><tspan x="-17.961" y="0">LIGHTS</tspan></text><g transform="translate(168.633 62.94)"><g transform="matrix(1, 0, 0, 1, -220.65, -134.99)" filter="url(#g)"><path d="M1001.174,1926.606l-9.835,5.086v12.532l9.835,5.75,10.342-5.75v-12.532Z" transform="translate(-770.69 -1791.62)" fill="#e4e4e4" stroke="#e4e4e4" stroke-width="1"/></g><circle cx="4.5" cy="4.5" r="4.5" transform="translate(5.352 7.011)" fill="#666"/><path d="M1005.405,1941.65a4.615,4.615,0,0,1,5.758,0c-.039-.065.87,7.594.87,7.594h-7.875Z" transform="translate(-998.056 -1932.704)" fill="#fff"/><g transform="matrix(1, 0, 0, 1, -220.65, -134.99)" filter="url(#i)"><g transform="translate(225 149)" fill="#fff" stroke="#e4e4e4" stroke-width="1"><circle cx="6.5" cy="6.5" r="6.5" stroke="none"/><circle cx="6.5" cy="6.5" r="6" fill="none"/></g></g></g><g transform="translate(26.666 86.741)"><g transform="matrix(1, 0, 0, 1, -78.68, -158.79)" filter="url(#k)"><path d="M1001.174,1926.606l-9.835,5.086v12.532l9.835,5.75,10.342-5.75v-12.532Z" transform="translate(-912.66 -1767.82)" fill="#e4e4e4" stroke="#e4e4e4" stroke-width="1"/></g><circle cx="4.5" cy="4.5" r="4.5" transform="translate(5.319 7.21)" fill="#666"/><path d="M1005.405,1941.65a4.615,4.615,0,0,1,5.758,0c-.039-.065.87,7.594.87,7.594h-7.875Z" transform="translate(-998.056 -1932.704)" fill="#fff"/><g transform="matrix(1, 0, 0, 1, -78.68, -158.79)" filter="url(#m)"><g transform="translate(82 173)" fill="#fff" stroke="#e4e4e4" stroke-width="1"><ellipse cx="7" cy="6.5" rx="7" ry="6.5" stroke="none"/><ellipse cx="7" cy="6.5" rx="6.5" ry="6" fill="none"/></g></g></g><g transform="translate(279.625 62.94)"><g transform="matrix(1, 0, 0, 1, -331.64, -134.99)" filter="url(#o)"><path d="M1001.174,1926.606l-9.835,5.086v12.532l9.835,5.75,10.342-5.75v-12.532Z" transform="translate(-659.7 -1791.62)" fill="#e4e4e4" stroke="#e4e4e4" stroke-width="1"/></g><circle cx="4.5" cy="4.5" r="4.5" transform="translate(5.359 7.011)" fill="#666"/><path d="M1005.405,1941.65a4.615,4.615,0,0,1,5.758,0c-.039-.065.87,7.594.87,7.594h-7.875Z" transform="translate(-998.056 -1932.704)" fill="#fff"/><g transform="matrix(1, 0, 0, 1, -331.64, -134.99)" filter="url(#q)"><g transform="translate(335 149)" fill="#fff" stroke="#e4e4e4" stroke-width="1"><ellipse cx="7" cy="6.5" rx="7" ry="6.5" stroke="none"/><ellipse cx="7" cy="6.5" rx="6.5" ry="6" fill="none"/></g></g></g><g transform="translate(394.775 62.94)"><g transform="matrix(1, 0, 0, 1, -446.79, -134.99)" filter="url(#s)"><path d="M1001.174,1926.606l-9.835,5.086v12.532l9.835,5.75,10.342-5.75v-12.532Z" transform="translate(-544.55 -1791.62)" fill="#e4e4e4" stroke="#e4e4e4" stroke-width="1"/></g><ellipse cx="5.5" cy="4.5" rx="5.5" ry="4.5" transform="translate(4.21 7.011)" fill="#666"/><path d="M1005.405,1941.65a4.615,4.615,0,0,1,5.758,0c-.039-.065.87,7.594.87,7.594h-7.875Z" transform="translate(-998.056 -1932.704)" fill="#fff"/><g transform="matrix(1, 0, 0, 1, -446.79, -134.99)" filter="url(#u)"><g transform="translate(450 149)" fill="#fff" stroke="#e4e4e4" stroke-width="1"><circle cx="6.5" cy="6.5" r="6.5" stroke="none"/><circle cx="6.5" cy="6.5" r="6" fill="none"/></g></g></g><text transform="translate(174.446 143.093)" fill="#fff" font-size="6" font-family="Roboto-Regular, Roboto" letter-spacing="0.032em"><tspan x="-13.952" y="0">FUEL QTY</tspan></text><text transform="translate(153.749 169.274)" fill="#fff" font-size="6" font-family="Roboto-Regular, Roboto" letter-spacing="0.032em"><tspan x="-7.156" y="0">LB</tspan></text><text transform="translate(263.279 166.894)" fill="#fff" font-size="6" font-family="Roboto-Regular, Roboto" letter-spacing="0.032em"><tspan x="-7.156" y="0">LB</tspan></text><text transform="translate(381.773 166.894)" fill="#fff" font-size="6" font-family="Roboto-Regular, Roboto" letter-spacing="0.032em"><tspan x="-7.156" y="0">LB</tspan></text><text transform="translate(283.014 142.141)" fill="#fff" font-size="6" font-family="Roboto-Regular, Roboto" letter-spacing="0.032em"><tspan x="-13.952" y="0">FUEL QTY</tspan></text><text transform="translate(398.769 142.141)" fill="#fff" font-size="6" font-family="Roboto-Regular, Roboto" letter-spacing="0.032em"><tspan x="-13.952" y="0">FUEL QTY</tspan></text><text transform="translate(177.323 183.174)" fill="#fff" font-size="8" font-family="Roboto-Regular, Roboto" letter-spacing="0.032em"><tspan x="-2.246" y="0">2</tspan></text><text transform="translate(287.298 182.174)" fill="#fff" font-size="7" font-family="Roboto-Regular, Roboto" letter-spacing="0.032em"><tspan x="-2.278" y="0">C</tspan></text><text transform="translate(403.43 183.174)" fill="#fff" font-size="8" font-family="Roboto-Regular, Roboto" letter-spacing="0.032em"><tspan x="-2.246" y="0">1</tspan></text><text transform="translate(176.661 159.137)" fill="#fff" font-size="14" font-family="Roboto-Bold, Roboto" font-weight="700" letter-spacing="0.032em"><tspan x="-16.736" y="0">5060</tspan></text><text transform="translate(288.638 159.613)" fill="#fff" font-size="14" font-family="Roboto-Bold, Roboto" font-weight="700" letter-spacing="0.032em"><tspan x="-16.736" y="0">5060</tspan></text><text transform="translate(403.673 159.613)" fill="#fff" font-size="14" font-family="Roboto-Bold, Roboto" font-weight="700" letter-spacing="0.032em"><tspan x="-16.736" y="0">5060</tspan></text></g><g transform="translate(189.86 99)"><g transform="matrix(1, 0, 0, 1, -166.57, -99)" filter="url(#w)"><circle cx="19" cy="19" r="19" transform="translate(167 99)" fill="#666"/></g><circle cx="12" cy="12" r="12" transform="translate(7.425 7)" fill="#2680eb"/><g transform="translate(15.882 4.193)"><path d="M2929.83,1541.256a13.9,13.9,0,0,1,15.623,6.532" transform="translate(-2929.83 -1540.81)" fill="none" stroke="#fff" stroke-width="1"/><path d="M2957.29,1551.481l2.561,1.088v-2.642Z" transform="translate(-2943.742 -1545.111)" fill="#fff"/></g></g><g transform="translate(298.623 99)"><g transform="matrix(1, 0, 0, 1, -275.34, -99)" filter="url(#y)"><ellipse cx="18" cy="19" rx="18" ry="19" transform="translate(275 99)" fill="#666"/></g><ellipse cx="11" cy="12" rx="11" ry="12" transform="translate(6.662 7)" fill="#2680eb"/><g transform="translate(14.942 4.193)"><path d="M2929.83,1541.256a13.9,13.9,0,0,1,15.623,6.532" transform="translate(-2929.83 -1540.81)" fill="none" stroke="#fff" stroke-width="1"/><path d="M2957.29,1551.481l2.561,1.088v-2.642Z" transform="translate(-2943.742 -1545.111)" fill="#fff"/></g></g><g transform="translate(407.516 99)"><g transform="matrix(1, 0, 0, 1, -384.23, -99)" filter="url(#aa)"><ellipse cx="18.5" cy="19" rx="18.5" ry="19" transform="translate(384 99)" fill="#666"/></g><circle cx="12" cy="12" r="12" transform="translate(5.77 7)" fill="#2680eb"/><g transform="translate(15.429 4.193)"><path d="M2929.83,1541.256a13.9,13.9,0,0,1,15.623,6.532" transform="translate(-2929.83 -1540.81)" fill="none" stroke="#fff" stroke-width="1"/><path d="M2957.29,1551.481l2.561,1.088v-2.642Z" transform="translate(-2943.742 -1545.111)" fill="#fff"/></g></g><path d="M2745.321,1485.066H2799.2" transform="translate(-2670.02 -1405.552)" fill="none" stroke="#666" stroke-width="1"/><path d="M2745.321,1485.066h50.3" transform="translate(-2271.446 -1405.552)" fill="none" stroke="#666" stroke-width="1"/></g></g></g></svg>