<svg xmlns="http://www.w3.org/2000/svg" width="28.56" height="37.837" viewBox="0 0 28.56 37.837"><defs><style>.a{fill:#0070f3;}</style></defs><g transform="translate(-48.4)"><g transform="translate(48.4)"><g transform="translate(0)"><path class="a" d="M173.915,161.813a2.677,2.677,0,0,0-.92-.5,5.43,5.43,0,0,0-1.188-.115h-1.763a1.015,1.015,0,0,0-.652.192.942.942,0,0,0-.192.652v4.945a1.137,1.137,0,0,0,.077.537.476.476,0,0,0,.23.307,1.077,1.077,0,0,0,.575.115h1.763a5.741,5.741,0,0,0,.843-.077,4.632,4.632,0,0,0,.69-.192,2.148,2.148,0,0,0,.575-.383,3.436,3.436,0,0,0,.575-.728,3.275,3.275,0,0,0,.345-.92,4.953,4.953,0,0,0,.115-1.112A3.364,3.364,0,0,0,173.915,161.813Zm-1,4.754a1.553,1.553,0,0,1-.345.192,1.687,1.687,0,0,1-.383.077h-1.572v-4.6h.92a3.023,3.023,0,0,1,1.073.153,1.2,1.2,0,0,1,.728.652,3.11,3.11,0,0,1,.307,1.5A2.631,2.631,0,0,1,172.919,166.567Z" transform="translate(-157.623 -145.751)"/><path class="a" d="M76.883,7.552l-.038-.038V7.475L69.561.192,69.523.153a.038.038,0,0,1-.038-.038.038.038,0,0,1-.038-.038A.63.63,0,0,0,69.063,0H51.007a2.551,2.551,0,0,0-1.8.728l-.038.038a2.677,2.677,0,0,0-.767,1.84V35.231a2.607,2.607,0,0,0,.767,1.84,2.677,2.677,0,0,0,1.84.767H74.353a2.607,2.607,0,0,0,1.84-.767,2.677,2.677,0,0,0,.767-1.84V7.936A1.134,1.134,0,0,0,76.883,7.552ZM69.791,2.76l4.332,4.332H70.941a1.044,1.044,0,0,1-.805-.345,1.2,1.2,0,0,1-.345-.805Zm5.52,32.47a1.052,1.052,0,0,1-1,1H51.007a1.1,1.1,0,0,1-.69-.268.924.924,0,0,1-.268-.69V2.568a.96.96,0,0,1,.307-.69l.038-.038a1.087,1.087,0,0,1,.652-.268H68.22V5.9A2.784,2.784,0,0,0,69.063,7.9a2.843,2.843,0,0,0,1.993.805h4.255Z" transform="translate(-48.4)"/><path class="a" d="M108.124,162.1a1.48,1.48,0,0,0-.728-.383,4.751,4.751,0,0,0-1.188-.115h-1.763a.942.942,0,0,0-.652.192c-.153.115-.192.345-.192.652v5.214a.975.975,0,0,0,.192.613.589.589,0,0,0,.5.192.675.675,0,0,0,.5-.23.975.975,0,0,0,.192-.613V165.7h1.265a2.888,2.888,0,0,0,1.878-.537,1.94,1.94,0,0,0,.652-1.572,2.249,2.249,0,0,0-.153-.882A2.677,2.677,0,0,0,108.124,162.1Zm-.92,2.147a.974.974,0,0,1-.5.345,2.549,2.549,0,0,1-.805.115h-.92v-2.07h.92a1.9,1.9,0,0,1,1.227.307.954.954,0,0,1,.268.728A1.276,1.276,0,0,1,107.2,164.245Z" transform="translate(-98.31 -146.112)"/><path class="a" d="M242.843,160.8a1.274,1.274,0,0,0-.5.153.463.463,0,0,0-.268.268.906.906,0,0,0-.077.5V166.9a.9.9,0,0,0,.192.613.589.589,0,0,0,.5.192.807.807,0,0,0,.5-.192.976.976,0,0,0,.192-.613v-2.223h2.262a.611.611,0,0,0,.46-.153.444.444,0,0,0,.153-.383.492.492,0,0,0-.153-.383.822.822,0,0,0-.46-.153H243.38v-1.725h2.684a.65.65,0,0,0,.5-.153.556.556,0,0,0,0-.767.65.65,0,0,0-.5-.153Z" transform="translate(-223.445 -145.389)"/></g></g></g></svg>