<svg xmlns="http://www.w3.org/2000/svg" width="44.426" height="35.481" viewBox="0 0 44.426 35.481"><defs><style>.a{fill:#0070f3;}</style></defs><g transform="matrix(0.891, 0.454, -0.454, 0.891, 8.84, 0)"><g transform="translate(0 0)"><g transform="translate(0 0)"><path class="a" d="M4,17.176l0,0a.942.942,0,0,0-.457,1.19.929.929,0,0,0,1.167.5l13.35-4.529-2.549,4a.732.732,0,0,0,.078.9.772.772,0,0,0,.915.139l2.626-1.363a.8.8,0,0,0,.2-.15l7.844-7.993,9.6-5c3.637-1.956,3.243-3.408,3.036-3.807A1.94,1.94,0,0,0,38.469.135a8.29,8.29,0,0,0-3.45.111,4.6,4.6,0,0,1-1.061.089C32.939.324,32.247.4,28.786,2.2L9.857,12.028,2.638,8.457a.971.971,0,0,0-.876.015L.526,9.114a.973.973,0,0,0-.5.64.893.893,0,0,0,.176.769L5.15,16.586Z"/></g></g></g></svg>