<svg xmlns="http://www.w3.org/2000/svg" width="32.749" height="34.308" viewBox="0 0 32.749 34.308"><defs><style>.a{fill:#0070f3;}</style></defs><g transform="translate(0)"><g transform="translate(0)"><path class="a" d="M47.3,8.062l.03-.029L39.937.953l-2.1,2.02,4.188,4.022a4.771,4.771,0,0,0-3.2,4.441A4.868,4.868,0,0,0,43.787,16.2a5.076,5.076,0,0,0,1.985-.4V29.543a1.986,1.986,0,0,1-3.969,0V20.966a3.892,3.892,0,0,0-3.97-3.812H35.848V3.812A3.892,3.892,0,0,0,31.878,0H19.97A3.892,3.892,0,0,0,16,3.812v30.5H35.848V20.013h2.977v9.53a4.966,4.966,0,0,0,9.924,0V11.436A4.691,4.691,0,0,0,47.3,8.062Zm-15.422,5.28H19.97V3.812H31.878Zm11.909,0a1.908,1.908,0,1,1,1.985-1.906A1.952,1.952,0,0,1,43.787,13.342Z" transform="translate(-16)"/></g></g></svg>