<svg xmlns="http://www.w3.org/2000/svg" width="34.5" height="34.5" viewBox="0 0 34.5 34.5"><defs><style>.a{fill:#2680eb;}</style></defs><path class="a" d="M17.25,0A17.25,17.25,0,1,0,34.5,17.25,17.271,17.271,0,0,0,17.25,0Zm9.684,12.46,2.657-1.1a.718.718,0,1,1,.549,1.327l-2.655,1.1-.275.056a.72.72,0,0,1-.276-1.384ZM20.712,7.015l1.1-2.657a.719.719,0,0,1,1.328.549l-1.1,2.657a.717.717,0,0,1-.664.444L21.1,7.954A.719.719,0,0,1,20.712,7.015Zm-4.18-3.154a.719.719,0,1,1,1.438,0V6.736a.719.719,0,1,1-1.438,0ZM11.75,3.97a.719.719,0,0,1,.939.39l1.1,2.655a.72.72,0,0,1-.39.939l-.275.055a.718.718,0,0,1-.664-.446l-1.1-2.655A.718.718,0,0,1,11.75,3.97ZM2.794,17.517a.719.719,0,0,1,.719-.719H6.388a.719.719,0,0,1,0,1.438H3.513A.72.72,0,0,1,2.794,17.517ZM7.566,22.04l-2.658,1.1-.275.055a.719.719,0,0,1-.275-1.383l2.658-1.1a.719.719,0,0,1,.549,1.328ZM7.954,13.4a.723.723,0,0,1-.664.443l-.275-.056-2.657-1.1a.72.72,0,0,1,.551-1.33l2.657,1.1A.72.72,0,0,1,7.954,13.4Zm1.164-3.266L7.087,8.1A.718.718,0,1,1,8.1,7.087L10.134,9.12a.719.719,0,0,1-1.016,1.016Zm15.32,17.923a.72.72,0,0,1-.719.719H10.781a.719.719,0,0,1-.719-.719V23.746a.719.719,0,0,1,.719-.719H23.719a.72.72,0,0,1,.719.719v4.313ZM19.718,15.8a2.836,2.836,0,0,1,.407,1.45A2.907,2.907,0,1,1,18.7,14.782L25.381,8.1A.719.719,0,0,1,26.4,9.12Zm10.81,6.952a.72.72,0,0,1-.663.446l-.275-.056-2.657-1.1a.719.719,0,0,1,.549-1.328l2.657,1.1A.715.715,0,0,1,30.528,22.751Zm.377-4.781H28.031a.719.719,0,0,1,0-1.438h2.874a.719.719,0,1,1,0,1.438Z"/></svg>