<svg xmlns="http://www.w3.org/2000/svg" width="68" height="68" viewBox="0 0 68 68"><g transform="translate(-293 -2580)"><circle cx="34" cy="34" r="34" transform="translate(293 2580)" fill="#2680eb"/><g transform="translate(297.761 2595.938)"><g transform="translate(14.673 0)"><g transform="translate(0)"><path d="M48.071,8.261l.031-.029L40.526.976,38.37,3.047l4.291,4.121a4.888,4.888,0,0,0-3.274,4.55A4.988,4.988,0,0,0,44.471,16.6a5.2,5.2,0,0,0,2.034-.41V30.27a2.035,2.035,0,0,1-4.067,0V21.482a3.988,3.988,0,0,0-4.067-3.906H36.336V3.906A3.988,3.988,0,0,0,32.269,0h-12.2A3.988,3.988,0,0,0,16,3.906V35.152H36.336V20.505h3.05V30.27a5.088,5.088,0,0,0,10.168,0V11.717A4.807,4.807,0,0,0,48.071,8.261Zm-15.8,5.409h-12.2V3.906h12.2Zm12.2,0A1.954,1.954,0,1,1,46.5,11.717,2,2,0,0,1,44.471,13.67Z" transform="translate(-16)" fill="#fff"/></g></g></g></g></svg>