<svg xmlns="http://www.w3.org/2000/svg" width="68" height="68" viewBox="0 0 68 68"><g transform="translate(-662 -2580)"><circle cx="34" cy="34" r="34" transform="translate(662 2580)" fill="#2680eb"/><g transform="translate(676.909 2595.938)"><g transform="translate(0 0)"><path d="M20.771,10.71h-.512a1.027,1.027,0,0,0-1.086.957v4.054h2.685V11.667A1.029,1.029,0,0,0,20.771,10.71Z" transform="translate(-5.205 -3.621)" fill="#fff"/><path d="M30.653,10.71h-.513a1.028,1.028,0,0,0-1.086.957v4.054h2.686V11.667A1.03,1.03,0,0,0,30.653,10.71Z" transform="translate(-7.887 -3.621)" fill="#fff"/><path d="M18.911.577C8.483.577,0,8.723,0,18.737a17.689,17.689,0,0,0,5.506,12.81A19.109,19.109,0,0,0,13.031,36a1.875,1.875,0,0,0,.566.087,1.818,1.818,0,0,0,1.731-1.207,1.734,1.734,0,0,0-1.166-2.205,15.446,15.446,0,0,1-6.074-3.6A14.28,14.28,0,0,1,3.643,18.737c0-8.085,6.849-14.662,15.268-14.662s15.268,6.577,15.268,14.662A14.277,14.277,0,0,1,29.71,29.1c-1.107.953-3.851,2.871-5.5,2.871a2.549,2.549,0,0,1-1.993-.8c-1.3-1.394-1.59-4.217-1.577-6.185a5.848,5.848,0,0,0,5.677-5.728V13.813H11.5v5.443a5.841,5.841,0,0,0,5.491,5.721c-.019,2.344.323,6.185,2.505,8.525a6.263,6.263,0,0,0,4.711,1.971c3.523,0,7.534-3.418,7.979-3.806l.058-.053A17.678,17.678,0,0,0,37.82,18.739C37.821,8.723,29.338.577,18.911.577Z" transform="translate(0 -0.577)" fill="#fff"/></g></g></g></svg>