<svg xmlns="http://www.w3.org/2000/svg" width="68" height="68" viewBox="0 0 68 68"><g transform="translate(-293 -2879)"><circle cx="34" cy="34" r="34" transform="translate(293 2879)" fill="#2680eb"/><g transform="translate(443.396 1526.038)"><text transform="translate(-124.219 1382.003)" fill="#fff" font-size="8" font-family="Roboto-Bold, Roboto" font-weight="700" letter-spacing="0.032em"><tspan x="0" y="0">OEW</tspan></text><g transform="matrix(0.891, 0.454, -0.454, 0.891, -129.765, 1375.035)"><g transform="translate(0 0)"><g transform="translate(0 0)"><path d="M4,17.176l0,0a.942.942,0,0,0-.457,1.19.929.929,0,0,0,1.167.5l13.35-4.529-2.549,4a.732.732,0,0,0,.078.9.772.772,0,0,0,.915.139l2.626-1.363a.8.8,0,0,0,.2-.15l7.844-7.993,9.6-5c3.637-1.956,3.243-3.408,3.036-3.807A1.94,1.94,0,0,0,38.469.135a8.29,8.29,0,0,0-3.45.111,4.6,4.6,0,0,1-1.061.089C32.939.324,32.247.4,28.786,2.2L9.857,12.028,2.638,8.457a.971.971,0,0,0-.876.015L.526,9.114a.973.973,0,0,0-.5.64.893.893,0,0,0,.176.769L5.15,16.586Z" fill="#fff"/></g></g></g></g></g></svg>