<svg xmlns="http://www.w3.org/2000/svg" width="68" height="68" viewBox="0 0 68 68"><g transform="translate(-662 -3178)"><circle cx="34" cy="34" r="34" transform="translate(662 3178)" fill="#2680eb"/><g transform="translate(810.933 1693.553)"><path d="M34.906,10.431a8.489,8.489,0,0,0-1.618.155,6.448,6.448,0,0,0-3.523-4.456,6.923,6.923,0,0,0-5.825-.1A9.014,9.014,0,0,0,12.525.907,8.466,8.466,0,0,0,7.191,11.869,7.267,7.267,0,0,0,0,19.1a7.289,7.289,0,0,0,7.414,7.025H34.906A8.016,8.016,0,0,0,43.08,18.28a8.016,8.016,0,0,0-8.173-7.849Zm0,0" transform="translate(-135.308 1502.555)" fill="#c8d9ed"/><g transform="matrix(0.891, 0.454, -0.454, 0.891, -128.894, 1500.488)"><g transform="translate(0 0)"><g transform="translate(0 0)"><path d="M4.118,17.675l0,0a.97.97,0,0,0-.47,1.224.956.956,0,0,0,1.2.516l13.738-4.661-2.623,4.116a.753.753,0,0,0,.081.929.794.794,0,0,0,.941.143l2.7-1.4a.824.824,0,0,0,.209-.155l8.072-8.225,9.879-5.15C41.589,3,41.184,1.5,40.971,1.094A2,2,0,0,0,39.587.139a8.531,8.531,0,0,0-3.551.114,4.738,4.738,0,0,1-1.092.092C33.9.333,33.184.413,29.623,2.262L10.143,12.378,2.715,8.7a1,1,0,0,0-.9.015L.541,9.379a1,1,0,0,0-.517.658.919.919,0,0,0,.181.791L5.3,17.068Z" fill="#fff"/></g></g></g></g></g></svg>