<svg xmlns="http://www.w3.org/2000/svg" width="40.363" height="40.363" viewBox="0 0 40.363 40.363"><defs><style>.a{fill:#0070f3;}</style></defs><g transform="translate(0 0)"><g transform="translate(0 0)"><path class="a" d="M3.779,16.853l0,0a.934.934,0,0,0-.44,1.161.871.871,0,0,0,1.108.485l12.721-4.46-2.441,3.906a.71.71,0,0,0,.941,1.012l2.5-1.338a.772.772,0,0,0,.194-.147l7.5-7.816,9.155-4.91c3.468-1.919,3.1-3.333,2.9-3.72a1.831,1.831,0,0,0-1.275-.9,7.711,7.711,0,0,0-3.283.12,4.289,4.289,0,0,1-1.01.091C31.38.33,30.721.409,27.42,2.172L9.37,11.816,2.516,8.361a.9.9,0,0,0-.833.017L.5,9.009a.955.955,0,0,0-.48.625.882.882,0,0,0,.164.748l4.687,5.891Z" transform="translate(13.469 0) rotate(45)"/><path class="a" d="M48.6,282.5H14.1a1.688,1.688,0,1,0,0,3.374H48.6a1.688,1.688,0,1,0,0-3.374Z" transform="translate(-10.33 -246.28)"/></g></g></svg>