<svg xmlns="http://www.w3.org/2000/svg" width="36.382" height="37.837" viewBox="0 0 36.382 37.837"><defs><style>.a{fill:#0070f3;}</style></defs><g transform="translate(-1)"><path class="a" d="M12.483,21.1a4.052,4.052,0,1,0-4.052-4.052A4.056,4.056,0,0,0,12.483,21.1Zm0-6.649a2.6,2.6,0,1,1-2.6,2.6A2.6,2.6,0,0,1,12.483,14.455Z" transform="translate(-2.024 -3.541)"/><path class="a" d="M1,0V37.837H37.382V0ZM2.455,1.455H35.927V20.9l-7.512-6.886a.747.747,0,0,0-.524-.191.729.729,0,0,0-.5.236l-7.127,7.805-3.451-3.451a.728.728,0,0,0-1-.032L3.636,29.106H2.455ZM35.927,36.382H2.455V30.561H35.927ZM5.838,29.106l10.423-9.176,7.5,7.5A.728.728,0,0,0,24.786,26.4l-3.5-3.5,6.68-7.316,7.958,7.295v6.229Z"/></g></svg>