<svg xmlns="http://www.w3.org/2000/svg" width="40.363" height="40.363" viewBox="0 0 40.363 40.363">
  <g id="Group_233" data-name="Group 233" transform="translate(-0.309 0.548)">
    <g id="takeoff-the-plane" transform="translate(0.31 -0.548)">
      <g id="Group_215" data-name="Group 215" transform="translate(0 0)">
        <path id="Path_148" data-name="Path 148" d="M3.779,16.853l0,0a.934.934,0,0,0-.44,1.161.871.871,0,0,0,1.108.485l12.721-4.46-2.441,3.906a.71.71,0,0,0,.941,1.012l2.5-1.338a.772.772,0,0,0,.194-.147l7.5-7.816,9.155-4.91c3.468-1.919,3.1-3.333,2.9-3.72a1.831,1.831,0,0,0-1.275-.9,7.711,7.711,0,0,0-3.283.12,4.289,4.289,0,0,1-1.01.091C31.38.33,30.721.409,27.42,2.172L9.37,11.816,2.516,8.361a.9.9,0,0,0-.833.017L.5,9.009a.955.955,0,0,0-.48.625.882.882,0,0,0,.164.748l4.687,5.891Z" transform="translate(13.469 0) rotate(45)" fill="#0070f3"/>
        <path id="Path_149" data-name="Path 149" d="M48.6,282.5H14.1a1.688,1.688,0,1,0,0,3.374H48.6a1.688,1.688,0,1,0,0-3.374Z" transform="translate(-10.33 -246.28)" fill="#0070f3"/>
      </g>
    </g>
    <g id="Group_224" data-name="Group 224" transform="translate(7.938 27.56) rotate(180)">
      <path id="Polygon_1" data-name="Polygon 1" d="M2.763,0,5.525,4.245H0Z" transform="translate(0 0)" fill="#0070f3"/>
      <rect id="Rectangle_402" data-name="Rectangle 402" width="3.315" height="4.245" transform="translate(1.105 3.714)" fill="#0070f3"/>
    </g>
  </g>
</svg>
