<svg xmlns="http://www.w3.org/2000/svg" width="30.285" height="34.377" viewBox="0 0 30.285 34.377"><defs><style>.a{fill:#0070f3;}.b{fill:none;stroke:#0070f3;stroke-width:2px;}</style></defs><path class="a" d="M110.185,369.175l2.4.919-1.84,5.314H119.5a1.312,1.312,0,0,1,1.278,1.343h0a1.312,1.312,0,0,1-1.278,1.343H109.278A1.312,1.312,0,0,1,108,376.75v-1.343Z" transform="translate(-97.394 -344.388)"/><path class="a" d="M48,12.75A2.686,2.686,0,0,1,50.617,10h0a2.686,2.686,0,0,1,2.617,2.75v3.288l0,0,8.424,12.219h9.084a3.935,3.935,0,0,1,3.833,4.029h0a3.935,3.935,0,0,1-3.833,4.029H57.967L48,16.11c0-.023,0-.045,0-.067h0Z" transform="translate(-47.361 -9.329)"/><path class="b" d="M148,194.686h12.778a1.312,1.312,0,0,0,1.278-1.343h0A1.312,1.312,0,0,0,160.778,192H148Z" transform="translate(-141.228 -179.109)"/><path class="a" d="M138,327.371h9.584a1.312,1.312,0,0,0,1.278-1.343v-1.343A2.623,2.623,0,0,0,146.306,322H138Z" transform="translate(-127.394 -300.38)"/><path class="a" d="M277.452,193.3l6.2,12.488,1.952-5.315-5.75-8.807Z" transform="translate(-273.043 -178.795)"/><g transform="translate(0 0)"><path class="a" d="M3.256,0A3.346,3.346,0,0,1,6.512,3.422V6.493l3.932,5.7h9.106a2.017,2.017,0,0,1,0,4.029H13.222l1.4,2.037h8.758a4.706,4.706,0,0,1,0,9.4H15.195l-.93,2.686h7.842a1.97,1.97,0,0,1,1.917,2.014,2.1,2.1,0,0,1-.11.671h5.732a.672.672,0,0,1,0,1.343H.767a.672.672,0,0,1,0-1.343h9.31a2.1,2.1,0,0,1-.11-.671V31.02a.7.7,0,0,1,.039-.232l1.1-3.125h-.5a.636.636,0,0,1-.566-.361L.072,7.09A.7.7,0,0,1,0,6.781c0-.014,0-.027,0-.04s0-.018,0-.027V3.422A3.346,3.346,0,0,1,3.256,0ZM19.551,14.883a.672.672,0,0,0,0-1.343H8.021L8.9,14.883ZM22,26.32h1.388a3.361,3.361,0,0,0,0-6.714H14.3a.63.63,0,0,1-.517-.277l-2.139-3.1H9.774l3.083,4.723h6.054a3.283,3.283,0,0,1,3.195,3.357v1.343A2.1,2.1,0,0,1,22,26.32Zm-1.807,0a.657.657,0,0,0,.639-.671V24.305a1.97,1.97,0,0,0-1.917-2.014h-5.9l-.493,1.343h3.833a.672.672,0,0,1,0,1.343H12.03l-.493,1.343Zm1.917,6.714a.672.672,0,0,0,0-1.343H13.352a.63.63,0,0,1-.523-.286.7.7,0,0,1-.077-.615l1.083-3.127H12.464l-1.219,3.477v1.223a.657.657,0,0,0,.639.671Zm-11.588-7.67,1.322-3.6L6.633,13.788l-1.389.946ZM1.278,6.618l3.38,6.915,1.8-1.228a.614.614,0,0,1,.306-.106l.007,0H8.867L5.359,7.109c-.01-.014-.019-.029-.028-.044l-.01-.018a.7.7,0,0,1-.086-.337V3.422A2.033,2.033,0,0,0,3.256,1.343,2.033,2.033,0,0,0,1.278,3.422Z" transform="translate(0 0)"/><path class="a" d="M168.639,352a.672.672,0,1,1-.639.671A.657.657,0,0,1,168.639,352Z" transform="translate(-149.727 -328.366)"/></g></svg>